<?xml version="1.0" encoding="UTF-8" standalone="no"?>
<svg
   xmlns:dc="http://purl.org/dc/elements/1.1/"
   xmlns:cc="http://creativecommons.org/ns#"
   xmlns:rdf="http://www.w3.org/1999/02/22-rdf-syntax-ns#"
   xmlns:svg="http://www.w3.org/2000/svg"
   xmlns="http://www.w3.org/2000/svg"
   xmlns:sodipodi="http://sodipodi.sourceforge.net/DTD/sodipodi-0.dtd"
   xmlns:inkscape="http://www.inkscape.org/namespaces/inkscape"
   viewBox="0 0 512 512"
   id="svg2"
   version="1.1"
   inkscape:version="0.48.4 r9939"
   width="100%"
   height="100%"
   sodipodi:docname="eclipse.svg">
  <metadata
     id="metadata18">
    <rdf:RDF>
      <cc:Work
         rdf:about="">
        <dc:format>image/svg+xml</dc:format>
        <dc:type
           rdf:resource="http://purl.org/dc/dcmitype/StillImage" />
      </cc:Work>
    </rdf:RDF>
  </metadata>
  <defs
     id="defs16" />
  <sodipodi:namedview
     pagecolor="#747474"
     bordercolor="#666666"
     borderopacity="1"
     objecttolerance="10"
     gridtolerance="10"
     guidetolerance="10"
     inkscape:pageopacity="0"
     inkscape:pageshadow="2"
     inkscape:window-width="1920"
     inkscape:window-height="1030"
     id="namedview14"
     showgrid="false"
     inkscape:zoom="0.4609375"
     inkscape:cx="-144.27119"
     inkscape:cy="256"
     inkscape:window-x="0"
     inkscape:window-y="0"
     inkscape:window-maximized="1"
     inkscape:current-layer="g6" />
  <g
     transform="matrix(18.68858,0,0,18.68858,3883.1294,-4115.74046)"
     id="g6">
    <path
       d="M 135.6875 18.5 C 128.89046 93.342156 111.84622 103.88856 27.78125 78.15625 C 112.62927 130.17778 101.35072 143.11011 20.9375 175.09375 C 108.68038 164.82438 124.22619 179.98493 91.6875 262.6875 C 127.99567 206.48346 151.42026 194.4308 180.40625 195.625 L 214.15625 156.90625 C 202.6609 121.50821 210.1575 91.991625 252.375 51.21875 C 190.17941 90.943196 153.52762 95.635245 135.6875 18.5 z M 145.71875 95.6875 C 151.38746 95.689832 157.14629 96.934842 162.59375 99.5625 C 181.96251 108.90528 190.09278 132.16249 180.75 151.53125 C 171.40722 170.90001 148.11876 179.03028 128.75 169.6875 C 109.38124 160.34472 101.25097 137.08751 110.59375 117.71875 C 117.30888 103.79746 131.23203 95.681539 145.71875 95.6875 z "
       transform="matrix(0.05350861,0,0,0.05350861,-207.78087,220.22756)"
       id="path8"
       style="fill:#333333;fill-opacity:1" />
    <path
       d="m-188.63,223.5309c-7.041,0-12.7505,5.7094-12.7505,12.7505 0,4.5045 2.3394,8.4523 5.8681,10.722-2.2273-2.3455-3.6223-5.4959-3.6223-8.9833 0-7.2196 5.8569-13.0765 13.0765-13.0765 1.6545,0 3.2515.3081 4.709.8693-2.0645-1.4377-4.5761-2.282-7.2808-2.282z"
       fill="#fff"
       id="path12"
       style="fill:#333333;fill-opacity:1" />
  </g>
</svg>
